<svg xmlns="http://www.w3.org/2000/svg" viewBox="0 0 64 64">
  <path fill="#1d9bf0" d="M61 16.7c-2.1.9-4.3 1.5-6.6 1.8 2.4-1.4 4.2-3.7 5-6.4-2.2 1.3-4.7 2.3-7.3 2.8-2.1-2.2-5-3.6-8.3-3.6-6.3 0-11.5 5.1-11.5 11.5 0 .9.1 1.8.3 2.6-9.5-.5-18-5-23.7-11.9-1 1.7-1.6 3.7-1.6 5.8 0 4 2 7.5 5.1 9.5-1.9-.1-3.7-.6-5.2-1.4v.1c0 5.5 3.9 10.2 9.2 11.2-1 .3-2 .4-3 .4-.7 0-1.5-.1-2.2-.2 1.5 4.6 5.7 7.9 10.7 8-3.9 3.1-8.9 4.9-14.3 4.9-.9 0-1.8-.1-2.7-.2 5.1 3.3 11.2 5.2 17.7 5.2 21.2 0 32.8-17.6 32.8-32.8v-1.5c2.3-1.6 4.2-3.6 5.6-5.9z"/>
</svg>
